<?xml version="1.0" encoding="UTF-8"?>
<!-- Generator: visioncortex VTracer 0.6.1 -->
<svg version="1.1" xmlns="http://www.w3.org/2000/svg" width="1280" height="1280">
<path d="M0 0 C422.4 0 844.8 0 1280 0 C1280 422.4 1280 844.8 1280 1280 C857.6 1280 435.2 1280 0 1280 C0 857.6 0 435.2 0 0 Z " fill="#FCFDFF" transform="translate(0,0)"/>
<path d="M0 0 C1.00600707 -0.00495952 2.01201413 -0.00991903 3.04850626 -0.01502883 C6.41674019 -0.0279737 9.78457699 -0.01960353 13.15282059 -0.01129913 C15.59320775 -0.01618854 18.0335926 -0.02237858 20.47397351 -0.02975702 C25.77853089 -0.04274575 31.08297266 -0.04640826 36.3875351 -0.04179764 C44.27584937 -0.0349591 52.16407745 -0.04523138 60.05237975 -0.0587552 C74.96161017 -0.08365891 89.87080475 -0.0881845 104.78005263 -0.08628923 C116.29432059 -0.08491586 127.80857612 -0.08873526 139.32284164 -0.09621429 C140.97742856 -0.09726463 142.63201547 -0.09831225 144.28660239 -0.09935716 C145.51861188 -0.10013617 145.51861188 -0.10013617 146.77551045 -0.10093093 C147.59835895 -0.10145107 148.42120745 -0.10197121 149.26899076 -0.10250711 C150.50534028 -0.1032931 150.50534028 -0.1032931 151.76666656 -0.10409497 C174.94800071 -0.11867765 198.1293303 -0.12696105 221.31066895 -0.12234497 C222.62141588 -0.12208704 222.62141588 -0.12208704 223.95864255 -0.1218239 C228.38749878 -0.12093501 232.816355 -0.1199902 237.24521121 -0.11902589 C238.12478487 -0.11883485 239.00435853 -0.11864382 239.91058594 -0.118447 C241.68929777 -0.11805991 243.46800961 -0.11766958 245.24672145 -0.11727602 C272.92030966 -0.11130668 300.59381423 -0.12674159 328.26738358 -0.15888214 C359.36452342 -0.19496832 390.46161023 -0.21429049 421.55877233 -0.20934343 C424.87541278 -0.20887346 428.19205323 -0.20846321 431.5086937 -0.20809174 C432.32532378 -0.20798935 433.14195386 -0.20788696 433.98333031 -0.20778148 C446.3049143 -0.20658722 458.62644094 -0.21854639 470.94800949 -0.23723602 C484.96405009 -0.25848569 498.97997049 -0.26231001 512.99601647 -0.24293643 C520.83633662 -0.23261961 528.67636347 -0.23605613 536.51665702 -0.25946729 C542.37573907 -0.275409 548.23458681 -0.26512231 554.09366146 -0.24474627 C556.4603651 -0.24055561 558.82710203 -0.24477603 561.1937705 -0.25834221 C589.71448278 -0.41067059 589.71448278 -0.41067059 600.97636795 10.5667038 C601.53968826 11.16611786 602.10300858 11.76553192 602.6833992 12.38311005 C603.51291092 13.23582489 603.51291092 13.23582489 604.35918045 14.1057663 C612.948579 23.46245603 614.98589837 33.92141328 614.9618721 46.29167938 C614.9676645 47.3684055 614.9734569 48.44513162 614.97942483 49.5544858 C614.99638498 53.15038599 614.99929795 56.74615751 615.00224686 60.34209442 C615.01154776 62.92452559 615.02171668 65.50695375 615.03268814 68.08937836 C615.05491574 73.6430075 615.06995601 79.19661835 615.08005524 84.75028229 C615.09466732 92.7798496 615.12021118 100.80935317 615.14838652 108.83888298 C615.19380863 121.86760583 615.23044234 134.89633787 615.2615242 147.92510223 C615.29172853 160.57811345 615.32608744 173.23110218 615.36601639 185.88408661 C615.36847794 186.66457766 615.37093949 187.44506872 615.37347563 188.24921101 C615.38585059 192.16487282 615.39830706 196.08053437 615.41080403 199.99619579 C615.51430321 232.45847004 615.60352906 264.92076893 615.6833992 297.38311005 C615.0233992 297.38311005 614.3633992 297.38311005 613.6833992 297.38311005 C613.6833992 296.72311005 613.6833992 296.06311005 613.6833992 295.38311005 C613.10976639 295.1201413 612.53613358 294.85717255 611.94511795 294.58623505 C609.53717342 293.305325 607.61112469 291.85524053 605.4958992 290.13311005 C604.62449295 289.42541473 603.7530867 288.71771942 602.8552742 287.9885788 C601.79745123 287.12073642 600.74021548 286.25217804 599.6833992 285.38311005 C599.04080154 284.85540009 598.39820389 284.32769012 597.73613358 283.78398895 C594.08602178 280.78495524 590.43993102 277.78109917 586.79668045 274.77373505 C583.51872169 272.06887735 580.2292692 269.3786316 576.9333992 266.69561005 C572.93307409 263.43090703 568.98978134 260.1049905 565.0583992 256.75811005 C560.80221557 253.13565509 556.47768774 249.63830347 552.03886795 246.24248505 C549.12857846 243.9451421 546.31332017 241.54236672 543.4958992 239.13311005 C538.99694598 235.28807061 534.42276336 231.57191218 529.7458992 227.94561005 C524.91734552 224.19982701 520.23506272 220.32719189 515.6208992 216.32061005 C504.93492148 207.10267399 494.70548135 199.09120222 481.6833992 193.38311005 C480.90609451 193.03377411 480.12878983 192.68443817 479.32793045 192.3245163 C465.58518582 186.93571024 450.78362946 189.48397909 437.4333992 194.63311005 C423.50867459 200.85871444 412.52452856 211.87632961 402.5974617 223.21123505 C400.38950898 225.71658548 398.08203959 228.06184515 395.6833992 230.38311005 C391.9970719 229.10830974 389.67848305 227.73656046 386.97636795 224.9338913 C386.30669998 224.25004364 385.63703201 223.56619598 384.94707108 222.86162567 C384.26193436 222.14684052 383.57679764 221.43205536 382.8708992 220.69561005 C377.67187289 215.32742882 372.41228099 210.18637908 366.6833992 205.38311005 C365.90859207 204.72367401 365.13378494 204.06423798 364.33549881 203.38481903 C343.90754131 186.44765139 318.8419577 178.82767782 292.6833992 177.38311005 C291.56062576 177.31221161 290.43785233 177.24131317 289.28105545 177.1682663 C262.04756222 176.30970724 231.77630794 186.95142604 211.6833992 205.38311005 C211.00793045 205.94256317 210.3324617 206.5020163 209.6365242 207.07842255 C185.45222858 227.23200223 172.0908547 256.26789615 167.9958992 287.00811005 C165.31843891 316.96219709 174.1365867 348.99836545 193.24199295 372.42217255 C200.43733569 380.74428289 208.52175896 388.34803926 216.4736824 395.93950653 C217.08646545 396.53321045 217.6992485 397.12691437 218.33060074 397.73860931 C219.49671727 398.86812031 220.67282491 399.98742933 221.85980606 401.09499359 C225.65726547 404.79679363 225.65726547 404.79679363 225.77763748 407.49736786 C224.38155584 409.90328812 222.77163403 411.56092179 220.7458992 413.4729538 C219.53281082 414.63987762 219.53281082 414.63987762 218.29521561 415.83037567 C217.43331619 416.65215302 216.57141678 417.47393036 215.6833992 418.32061005 C200.8027941 432.86709876 189.3107254 449.33039481 187.6833992 470.7229538 C187.6833992 480.06292584 189.97063011 488.86866785 193.6833992 497.38311005 C193.99664139 498.10627411 194.30988358 498.82943817 194.63261795 499.5745163 C200.08614475 510.58293657 209.87826891 519.59703228 218.18608475 528.49199677 C221.7531272 532.32577184 225.17752451 536.25978529 228.5583992 540.25811005 C233.41997968 546.00638884 238.50162961 551.50838066 243.67412186 556.97710419 C247.86044738 561.42951465 251.73126015 566.06163202 255.5427742 570.8401413 C257.79412037 573.51464194 260.18332493 575.94055282 262.6833992 578.38311005 C265.98811013 581.61190878 268.99485987 584.89282609 271.8708992 588.50811005 C275.74644294 593.36802812 279.90206197 597.87819187 284.1833992 602.38311005 C300.6833992 619.76983074 300.6833992 619.76983074 300.6833992 622.38311005 C286.99030661 623.66055403 273.28587423 623.53351089 259.54563153 623.52849376 C256.01389313 623.52828754 252.48216262 623.53382919 248.95042801 623.53855133 C242.05159588 623.54680907 235.15277229 623.54960389 228.25393563 623.55016371 C222.64276115 623.55064091 217.03158947 623.55270578 211.42041588 623.55586433 C195.4767352 623.56465525 179.53306123 623.56928581 163.58937811 623.56853386 C162.30379331 623.56847393 162.30379331 623.56847393 160.99223709 623.56841278 C159.70506605 623.56835146 159.70506605 623.56835146 158.39189155 623.5682889 C144.47662675 623.5678822 130.56138897 623.57746184 116.64613198 623.59155115 C102.32381042 623.6059372 88.00150202 623.6128202 73.67917305 623.61195737 C65.65182193 623.61162632 57.6244992 623.61433348 49.59715462 623.62513542 C42.76619424 623.63426952 35.93527514 623.63639164 29.10431128 623.629626 C25.62506092 623.62637629 22.14588964 623.62624775 18.66664696 623.63497925 C-18.40975771 623.71099517 -18.40975771 623.71099517 -29.3166008 615.38311005 C-30.19445236 614.73213348 -31.07230392 614.08115692 -31.97675705 613.4104538 C-38.65301074 607.9927575 -41.69590836 602.50116199 -44.3166008 594.38311005 C-44.8116008 592.89811005 -44.8116008 592.89811005 -45.3166008 591.38311005 C-45.41553442 588.3682531 -45.45589935 585.37649229 -45.45082188 582.36143494 C-45.45317411 581.4225332 -45.45552634 580.48363146 -45.45794985 579.51627815 C-45.46465692 576.34032626 -45.46418111 573.16441512 -45.46377182 569.98845673 C-45.46706939 567.70031754 -45.47079473 565.41217894 -45.4749133 563.12404108 C-45.48495373 556.81277997 -45.48865338 550.50152838 -45.49130261 544.19026041 C-45.49431942 538.08990833 -45.5029466 531.9895628 -45.51084654 525.88921551 C-45.53170257 509.53952169 -45.54216296 493.18982606 -45.55097615 476.84012204 C-45.55518141 469.10625054 -45.5604036 461.37237982 -45.56566068 453.63850897 C-45.58355276 427.16782633 -45.59854864 400.69714347 -45.60598087 374.22645569 C-45.60645563 372.56421396 -45.60693152 370.90197223 -45.60740853 369.23973051 C-45.60764491 368.41540101 -45.60788129 367.59107151 -45.60812483 366.74176232 C-45.60932603 362.56524541 -45.61054148 358.38872851 -45.61176682 354.21221161 C-45.61200697 353.38336608 -45.61224712 352.55452055 -45.61249454 351.70055849 C-45.62038658 324.83046803 -45.64381546 297.96042172 -45.67632276 271.09035053 C-45.71062307 242.68636395 -45.73033225 214.2824032 -45.73362511 185.87839556 C-45.73404266 182.75997701 -45.73452222 179.64155848 -45.73504829 176.52313995 C-45.73517149 175.75528944 -45.73529468 174.98743893 -45.7354216 174.19632022 C-45.7377535 161.8402222 -45.75341305 149.48417545 -45.77389014 137.12809571 C-45.79414944 124.706275 -45.79962497 112.28451586 -45.79011951 99.86268169 C-45.78536355 93.1332969 -45.78751545 86.40408849 -45.80688095 79.67472458 C-45.82445848 73.51349877 -45.82355857 67.35256152 -45.80798366 61.19133288 C-45.80559938 58.96310888 -45.80997345 56.73486519 -45.82181231 54.50667137 C-45.90707579 37.39864723 -44.09072616 24.61504099 -32.0041008 11.63311005 C-23.08158372 3.16162131 -12.04724064 -0.08426421 0 0 Z " fill="#E31A81" transform="translate(354.31660079956055,126.61688995361328)"/>
<path d="M0 0 C0.66548859 -0.00511093 1.33097717 -0.01022186 2.01663208 -0.01548767 C4.22919611 -0.02944265 6.44144973 -0.0284193 8.65405273 -0.02612305 C10.20230727 -0.03001335 11.75056075 -0.03434871 13.29881287 -0.03910828 C16.55813024 -0.04658786 19.81733943 -0.0462715 23.07666016 -0.04101562 C27.20488011 -0.03528868 31.33264141 -0.05197629 35.46078587 -0.0753603 C38.66894521 -0.09029409 41.87699994 -0.09094193 45.08518791 -0.08785057 C46.60345285 -0.08835635 48.12172485 -0.09345035 49.63995552 -0.10366249 C57.75634469 -0.15145692 65.60616723 0.22664284 73.61865234 1.59423828 C74.29955964 1.70844211 74.98046694 1.82264593 75.68200779 1.94031048 C87.09953453 4.09217499 97.38019426 9.7508571 103.97827148 19.3996582 C110.32087569 29.89776171 111.07794725 42.06592415 108.58764648 53.9621582 C105.84930788 62.85202525 98.3264569 69.59387196 90.52514648 74.2746582 C89.53514648 74.2746582 88.54514648 74.2746582 87.52514648 74.2746582 C87.52514648 74.9346582 87.52514648 75.5946582 87.52514648 76.2746582 C88.65952148 76.6046582 89.79389648 76.9346582 90.96264648 77.2746582 C101.07403867 81.15128736 107.10206546 89.73080778 111.52514648 99.2746582 C114.32567917 108.88818269 114.03618131 122.75651819 109.95874023 131.85668945 C103.39124894 142.9337388 94.04953515 148.79233862 81.84812927 152.34541321 C77.47176398 153.40583495 73.31637618 153.55055583 68.83007812 153.51757812 C68.00146271 153.51947647 67.17284729 153.52137482 66.31912231 153.52333069 C63.60774981 153.52700572 60.896651 153.51638638 58.18530273 153.50512695 C56.29341157 153.50393382 54.40151981 153.50348227 52.5096283 153.5037384 C48.55992891 153.50217953 44.61032094 153.49393131 40.66064453 153.48046875 C35.58728894 153.4633981 30.51403285 153.45965704 25.44065189 153.46041393 C21.54175357 153.46014281 17.64287718 153.45467219 13.74398613 153.44741249 C11.87199507 153.44422292 10.00000152 153.44225775 8.12800789 153.44151878 C5.52344593 153.43936287 2.91899205 153.43063743 0.31445312 153.41992188 C-0.85352058 153.42060165 -0.85352058 153.42060165 -2.04508972 153.42129517 C-7.36037125 153.38914047 -7.36037125 153.38914047 -8.47485352 152.2746582 C-8.57585846 150.34299143 -8.60562642 148.40758532 -8.60856628 146.47328186 C-8.61283127 145.21267441 -8.61709625 143.95206696 -8.62149048 142.65325928 C-8.62114092 141.2432861 -8.62067936 139.83331295 -8.62011719 138.42333984 C-8.62310706 136.94862279 -8.62650919 135.47390651 -8.6302948 133.99919128 C-8.63915646 129.98271122 -8.64147382 125.96625243 -8.64211059 121.94976354 C-8.64305789 118.60216242 -8.64673411 115.2545663 -8.65028268 111.9069671 C-8.65843547 104.0120315 -8.66086617 96.1171073 -8.66015625 88.22216797 C-8.65955523 80.06571268 -8.67011002 71.90932348 -8.68589991 63.75288492 C-8.6989554 56.76095614 -8.70434099 49.76904902 -8.70370084 42.77710813 C-8.70344526 38.59636232 -8.70632903 34.4156752 -8.71687889 30.23494148 C-8.72652649 26.30418947 -8.72666218 22.37355266 -8.71936226 18.44279671 C-8.71831224 16.99717034 -8.72070387 15.55153692 -8.72672272 14.1059227 C-8.73438659 12.13830218 -8.72862405 10.17064279 -8.72209167 8.20301819 C-8.72263644 7.10000901 -8.72318121 5.99699984 -8.72374249 4.86056614 C-8.19366149 -0.64687225 -4.65136227 0.01777606 0 0 Z " fill="#E31A81" transform="translate(714.474853515625,861.725341796875)"/>
<path d="M0 0 C2.4140625 2.1015625 2.4140625 2.1015625 4 4 C4 4.66 4 5.32 4 6 C4.99 6.33 5.98 6.66 7 7 C7.07347656 5.73542969 7.07347656 5.73542969 7.1484375 4.4453125 C7.22320312 3.34960938 7.29796875 2.25390625 7.375 1.125 C7.44460938 0.03445313 7.51421875 -1.05609375 7.5859375 -2.1796875 C8 -5 8 -5 10 -7 C12.56927031 -7.18729753 15.02873977 -7.25574642 17.59765625 -7.23046875 C18.72185219 -7.22978142 18.72185219 -7.22978142 19.86875916 -7.2290802 C21.45329369 -7.22605811 23.03782526 -7.21817306 24.62231445 -7.20581055 C27.05625858 -7.18754683 29.48982262 -7.18530089 31.92382812 -7.18554688 C33.46094081 -7.18063201 34.9980509 -7.17480382 36.53515625 -7.16796875 C37.26742935 -7.16685593 37.99970245 -7.1657431 38.75416565 -7.16459656 C43.88394762 -7.11605238 43.88394762 -7.11605238 45 -6 C45.10802157 -4.44421404 45.14683525 -2.88357142 45.15821838 -1.32408142 C45.17290161 0.19252831 45.17290161 0.19252831 45.18788147 1.73977661 C45.19363693 2.85826996 45.1993924 3.97676331 45.20532227 5.12915039 C45.21522186 6.29972488 45.22512146 7.47029938 45.23532104 8.67634583 C45.26157055 11.89517929 45.28340702 15.11400725 45.30332303 18.33288503 C45.32514571 21.69350344 45.35255253 25.05407607 45.37937927 28.41465759 C45.4293566 34.7823902 45.47427665 41.15014815 45.51740164 47.51793045 C45.56673104 54.7657298 45.62166505 62.01348324 45.67708123 69.26123822 C45.79097861 84.17411604 45.89780067 99.08703708 46 114 C40.74894558 114.02464928 35.49792455 114.04283568 30.24682617 114.05493164 C28.45905979 114.05997218 26.67129755 114.06680454 24.88354492 114.07543945 C22.31948832 114.0875173 19.75548603 114.09323094 17.19140625 114.09765625 C15.98515343 114.10539818 15.98515343 114.10539818 14.75453186 114.11329651 C12.83598285 114.11349215 10.91754632 114.06201983 9 114 C7.18884044 112.18884044 7.61800552 109.38721773 7.4375 106.9375 C7.31181641 105.28041016 7.31181641 105.28041016 7.18359375 103.58984375 C7.12300781 102.73519531 7.06242187 101.88054687 7 101 C6.59910156 101.44730469 6.19820313 101.89460937 5.78515625 102.35546875 C-1.83987518 110.46462915 -11.73044949 115.79978267 -22.98046875 116.46875 C-24.71584086 116.50291282 -26.45183798 116.51268078 -28.1875 116.5 C-29.10442627 116.49427979 -30.02135254 116.48855957 -30.96606445 116.48266602 C-45.20579706 116.11178111 -56.37825684 110.29096589 -66.75 100.6875 C-79.55673682 87.12919412 -83.70272711 68.3608269 -83.2421875 50.265625 C-82.46035207 32.97235429 -75.53707364 16.01523761 -62.94921875 4.05078125 C-43.7796029 -12.10496446 -20.84950592 -12.44668238 0 0 Z " fill="#E31A81" transform="translate(360,901)"/>
<path d="M0 0 C0.83350479 -0.00902847 1.66700958 -0.01805695 2.52577209 -0.02735901 C4.29017536 -0.04187809 6.05463266 -0.05075236 7.8190918 -0.05444336 C10.52159062 -0.0663465 13.22181117 -0.11551754 15.92382812 -0.16601562 C17.63670758 -0.17547883 19.34960109 -0.18271436 21.0625 -0.1875 C21.87194565 -0.20703232 22.6813913 -0.22656464 23.5153656 -0.24668884 C25.80053711 -0.22827148 25.80053711 -0.22827148 29.59765625 0.37109375 C31.51660156 2.62573242 31.51660156 2.62573242 32.59765625 5.37109375 C32.92096924 6.10553711 33.24428223 6.83998047 33.57739258 7.59667969 C33.99927856 8.71478027 33.99927856 8.71478027 34.4296875 9.85546875 C34.7498584 10.69867676 35.0700293 11.54188477 35.39990234 12.41064453 C35.73328613 13.30509277 36.06666992 14.19954102 36.41015625 15.12109375 C36.76416504 16.06065918 37.11817383 17.00022461 37.48291016 17.96826172 C39.7840967 24.10579995 42.00572269 30.26768798 44.15405273 36.46020508 C47.07748891 44.84452945 50.21871631 53.14990496 53.34716797 61.45947266 C53.76756348 62.58401855 54.18795898 63.70856445 54.62109375 64.8671875 C55.00185059 65.87966553 55.38260742 66.89214355 55.77490234 67.93530273 C56.59765625 70.37109375 56.59765625 70.37109375 56.59765625 72.37109375 C57.25765625 72.37109375 57.91765625 72.37109375 58.59765625 72.37109375 C58.59765625 73.03109375 58.59765625 73.69109375 58.59765625 74.37109375 C59.25765625 74.37109375 59.91765625 74.37109375 60.59765625 74.37109375 C60.74146729 72.92899536 60.74146729 72.92899536 60.88818359 71.45776367 C61.57155929 66.71726232 63.24067571 62.43858331 64.94921875 57.984375 C65.28633881 57.08728317 65.62345886 56.19019135 65.97079468 55.26591492 C67.0480668 52.40256722 68.13483009 49.54294651 69.22265625 46.68359375 C70.28304998 43.88154095 71.34132318 41.07870667 72.39764404 38.27511597 C73.09789606 36.41673922 73.80008153 34.55908986 74.50421143 32.70217896 C76.26069106 28.04438141 77.95444086 23.37599501 79.54199219 18.65771484 C79.850914 17.74426804 80.15983582 16.83082123 80.4781189 15.88969421 C81.05712221 14.16292432 81.62614083 12.43276164 82.18325806 10.69880676 C84.84779595 2.75380924 84.84779595 2.75380924 88.59765625 0.37109375 C91.48730745 0.02199325 93.98358335 -0.09706245 96.86328125 -0.01953125 C97.65667908 -0.01387146 98.4500769 -0.00821167 99.26751709 -0.00238037 C101.79485098 0.01996228 104.3207529 0.07015199 106.84765625 0.12109375 C108.56378157 0.14116161 110.27992917 0.15941188 111.99609375 0.17578125 C116.19716405 0.2198198 120.3971676 0.28883049 124.59765625 0.37109375 C125.60363862 4.12442491 125.64231964 6.16999209 124.03857422 9.70605469 C123.67506866 10.52777161 123.31156311 11.34948853 122.93704224 12.19610596 C122.53371674 13.07369568 122.13039124 13.9512854 121.71484375 14.85546875 C120.87226903 16.75146318 120.03082919 18.64796228 119.19042969 20.54492188 C118.75710327 21.51341064 118.32377686 22.48189941 117.87731934 23.47973633 C115.90318026 27.94023983 114.03452942 32.442885 112.16796875 36.94921875 C111.43427846 38.71097184 110.70030834 40.47260842 109.96606445 42.23413086 C109.59969879 43.11406708 109.23333313 43.9940033 108.85586548 44.90060425 C103.24363806 58.37384943 97.58906229 71.81625526 91.64453125 85.14672852 C87.35080365 94.82311349 83.31185999 104.60238817 79.26013184 114.3817749 C74.3003352 126.34814327 69.22339283 138.2572743 64.04858398 150.13208008 C59.81649589 159.84545102 55.68414228 169.59557816 51.59765625 179.37109375 C38.72765625 179.37109375 25.85765625 179.37109375 12.59765625 179.37109375 C11.17209961 175.09442384 13.09517769 172.47742067 14.9375 168.6171875 C15.29727432 167.8428688 15.65704865 167.06855011 16.02772522 166.27076721 C17.18771515 163.77898034 18.36094192 161.29370473 19.53515625 158.80859375 C20.29194892 157.19249401 21.04781794 155.5759614 21.80273438 153.95898438 C22.17564606 153.16037994 22.54855774 152.36177551 22.93276978 151.53897095 C24.44322348 148.30103705 25.9518687 145.06227249 27.45721436 141.82196045 C28.2277963 140.16594129 29.00118579 138.51122607 29.77716064 136.85772705 C30.91758889 134.42068573 32.04249807 131.97701956 33.1640625 129.53125 C33.51057358 128.79821152 33.85708466 128.06517303 34.21409607 127.30992126 C36.37422073 122.54861895 37.66476337 118.74074576 36.01359558 113.52677917 C35.1860295 111.35976111 34.27618234 109.24553513 33.3359375 107.125 C32.99401367 106.33009155 32.65208984 105.53518311 32.29980469 104.71618652 C31.17968457 102.11764388 30.04485641 99.52579849 28.91015625 96.93359375 C28.12599031 95.12023174 27.34304309 93.30634226 26.5612793 91.49194336 C24.98472513 87.83413036 23.40391865 84.17820239 21.8203125 80.5234375 C18.79106757 73.51814692 15.84641703 66.4782278 12.91015625 59.43359375 C9.56561161 51.42230409 6.19930796 43.42107321 2.7890625 35.4375 C2.46966202 34.68878128 2.15026154 33.94006256 1.82118225 33.1686554 C0.27726849 29.54952152 -1.26973761 25.93178277 -2.82299805 22.31665039 C-5.63526294 15.74333528 -8.2848035 9.20429102 -10.40234375 2.37109375 C-7.40174781 -0.62950219 -4.0268502 0.02661195 0 0 Z " fill="#E31A81" transform="translate(1003.40234375,893.62890625)"/>
<path d="M0 0 C5.51756476 -0.0493521 11.03500171 -0.08569662 16.55273438 -0.10986328 C18.43068682 -0.11993534 20.30862353 -0.13359362 22.18652344 -0.15087891 C24.8822009 -0.17507453 27.57767146 -0.18647083 30.2734375 -0.1953125 C31.11619232 -0.20563507 31.95894714 -0.21595764 32.82723999 -0.22659302 C34.88621247 -0.22699144 36.94467935 -0.12257588 39 0 C41.78505915 2.78505915 42.53111138 6.08810287 43.75 9.75 C47.09314928 19.53757107 50.61836429 29.25433318 54.19055176 38.96008301 C54.80749495 40.63699182 55.42332174 42.31431184 56.03796387 43.99206543 C59.49224814 53.41919719 63.02107081 62.7789171 67 72 C67.66 72 68.32 72 69 72 C73.26608366 60.75000676 77.52696176 49.50433528 81.4375 38.125 C84.24789347 29.98495614 87.24461013 21.92140103 90.3125 13.875 C90.74554443 12.72918457 91.17858887 11.58336914 91.62475586 10.40283203 C92.03346924 9.33919434 92.44218262 8.27555664 92.86328125 7.1796875 C93.22719971 6.22819824 93.59111816 5.27670898 93.96606445 4.29638672 C95 2 95 2 97 0 C99.79684797 -0.17525055 102.4932808 -0.23143189 105.2890625 -0.1953125 C106.51669815 -0.19106766 106.51669815 -0.19106766 107.76913452 -0.18673706 C110.38790393 -0.17552532 113.00633364 -0.15041929 115.625 -0.125 C117.39843257 -0.11497147 119.17187049 -0.1058454 120.9453125 -0.09765625 C125.29700626 -0.07558278 129.6484455 -0.04104644 134 0 C135.09478908 3.95199622 134.94966676 5.9921361 133.21875 9.69140625 C132.5853772 11.08093506 132.5853772 11.08093506 131.93920898 12.49853516 C131.46427002 13.50964355 130.98933105 14.52075195 130.5 15.5625 C129.47680117 17.80953148 128.45750188 20.05834133 127.44140625 22.30859375 C127.1682106 22.91135132 126.89501495 23.51410889 126.61354065 24.13513184 C123.04171734 32.05558744 119.75511279 40.09573071 116.4375 48.125 C112.38553959 57.90772172 108.32046925 67.67962401 104.0625 77.375 C99.35346468 88.10014127 94.8185297 98.89607273 90.28573608 109.69650269 C84.61016479 123.21719689 78.86333388 136.70576716 73.0480957 150.16699219 C72.46660787 151.51612448 71.88546414 152.86540515 71.3046875 154.21484375 C71.02709091 154.85914337 70.74949432 155.50344299 70.46348572 156.16726685 C67.92896162 162.0885229 65.58175087 168.07831552 63.26611328 174.08813477 C62 177 62 177 60 179 C57.13111419 179.17532289 54.36007355 179.23137614 51.4921875 179.1953125 C50.65156769 179.1924826 49.81094788 179.18965271 48.94485474 179.18673706 C46.25475954 179.1755243 43.5649949 179.15041803 40.875 179.125 C39.05339022 179.1149716 37.23177523 179.10584551 35.41015625 179.09765625 C30.93997642 179.07558142 26.47004429 179.04104434 22 179 C20.69386862 175.08160587 21.61718679 174.01644275 23.32421875 170.3125 C23.85329834 169.15137695 24.38237793 167.99025391 24.92749023 166.79394531 C25.21453827 166.17571899 25.5015863 165.55749268 25.79733276 164.92053223 C26.69367616 162.98667496 27.57534698 161.04672957 28.45336914 159.10449219 C31.16073923 153.12814383 33.90765586 147.1725351 36.72807312 141.24865723 C37.59566203 139.41953579 38.45257653 137.58581071 39.3059082 135.75 C40.37162677 133.46387979 41.45790628 131.18720173 42.56713867 128.921875 C45.15662428 123.32467219 46.84960109 119.29638263 44.91430664 113.28027344 C44.61258545 112.5277832 44.31086426 111.77529297 44 111 C43.67314209 110.14180664 43.34628418 109.28361328 43.00952148 108.39941406 C41.81526114 105.40477303 40.54228391 102.45362797 39.25 99.5 C38.25238342 97.18108454 37.25499876 94.86206929 36.2578125 92.54296875 C35.72313361 91.3064122 35.18830018 90.06992246 34.65332031 88.83349609 C32.07478092 82.86533555 29.54239256 76.8775231 27.00601196 70.89135742 C26.12149314 68.80422513 25.23602073 66.7174996 24.3503418 64.63085938 C19.15508823 52.38726137 13.99310947 40.12988707 8.87109375 27.85546875 C7.13709577 23.70151436 5.38478713 19.55714009 3.59765625 15.42578125 C3.08609985 14.22888672 3.08609985 14.22888672 2.56420898 13.0078125 C1.9647912 11.60672991 1.35705302 10.20915808 0.73852539 8.81640625 C-0.71917582 5.37882827 -1.09714707 3.54209491 0 0 Z " fill="#E31A81" transform="translate(552,894)"/>
<path d="M0 0 C1.31497971 -0.00306656 1.31497971 -0.00306656 2.65652466 -0.00619507 C5.55752336 -0.00920611 8.45795548 0.00928136 11.35888672 0.02832031 C13.3700242 0.03137702 15.3811638 0.03325381 17.39230347 0.03399658 C21.60732115 0.03860143 25.82214796 0.05303622 30.03710938 0.07519531 C35.45251759 0.1035141 40.86777558 0.11441017 46.28325081 0.11887741 C50.43522661 0.12302441 54.58717173 0.13283525 58.73913193 0.1447525 C60.73672107 0.15046748 62.73431318 0.1552221 64.73190689 0.15901947 C67.51663712 0.16585819 70.30124576 0.17947816 73.0859375 0.1953125 C74.33582458 0.19698929 74.33582458 0.19698929 75.61096191 0.19869995 C81.2988864 0.2417575 81.2988864 0.2417575 82.41357422 1.35644531 C82.50133027 3.50203358 82.52052641 5.65048952 82.51123047 7.79785156 C82.50639648 9.75561523 82.50639648 9.75561523 82.50146484 11.75292969 C82.49310823 13.14160221 82.48464327 14.53027408 82.47607422 15.91894531 C82.47106088 17.31152187 82.46649768 18.70410013 82.46240234 20.09667969 C82.45056856 23.51664402 82.43408302 26.93652375 82.41357422 30.35644531 C81.73927872 30.36675278 81.06498322 30.37706024 80.37025452 30.38768005 C73.3791384 30.495503 66.38815754 30.61011974 59.3972168 30.72875977 C56.78494078 30.77218656 54.17263494 30.81385569 51.56030273 30.85375977 C47.81468703 30.91127538 44.06922253 30.97502295 40.32373047 31.04003906 C38.55969627 31.0651078 38.55969627 31.0651078 36.76002502 31.09068298 C35.67897995 31.1106282 34.59793488 31.13057343 33.48413086 31.15112305 C32.04850548 31.17443947 32.04850548 31.17443947 30.58387756 31.19822693 C28.43494728 31.11713141 28.43494728 31.11713141 27.41357422 32.35644531 C27.3259031 34.42906608 27.30661549 36.50464826 27.31591797 38.57910156 C27.31841553 39.71355713 27.32091309 40.8480127 27.32348633 42.0168457 C27.33259033 43.46953857 27.34169434 44.92223145 27.35107422 46.41894531 C27.37169922 51.01832031 27.39232422 55.61769531 27.41357422 60.35644531 C43.25357422 60.68644531 59.09357422 61.01644531 75.41357422 61.35644531 C76.79666203 64.12262094 76.52567618 66.36662531 76.51123047 69.45800781 C76.50639648 71.27558594 76.50639648 71.27558594 76.50146484 73.12988281 C76.48889648 75.03640625 76.48889648 75.03640625 76.47607422 76.98144531 C76.4715625 78.26019531 76.46705078 79.53894531 76.46240234 80.85644531 C76.45058625 84.02315824 76.43411237 87.18977887 76.41357422 90.35644531 C75.51488365 90.37190651 75.51488365 90.37190651 74.59803772 90.38768005 C68.38547334 90.49551496 62.17306081 90.61013076 55.96069336 90.72875977 C53.63943649 90.7721827 51.31814614 90.81385215 48.99682617 90.85375977 C45.66819143 90.91128471 42.33972637 90.97502956 39.01123047 91.04003906 C37.44406029 91.0651078 37.44406029 91.0651078 35.8452301 91.09068298 C34.88430954 91.1106282 33.92338898 91.13057343 32.93334961 91.15112305 C32.08285538 91.16666733 31.23236115 91.18221161 30.35609436 91.19822693 C28.40833623 91.1458936 28.40833623 91.1458936 27.41357422 92.35644531 C27.3257388 94.57499796 27.30662813 96.79633028 27.31591797 99.01660156 C27.31804039 100.01330116 27.31804039 100.01330116 27.32020569 101.03013611 C27.32581904 103.1597843 27.33837368 105.28932871 27.35107422 107.41894531 C27.3560875 108.85969901 27.36065071 110.30045434 27.36474609 111.74121094 C27.37579277 115.27965633 27.3930663 118.8180407 27.41357422 122.35644531 C28.08786972 122.36675278 28.76216522 122.37706024 29.45689392 122.38768005 C36.44801004 122.495503 43.43899089 122.61011974 50.42993164 122.72875977 C53.04220766 122.77218656 55.6545135 122.81385569 58.2668457 122.85375977 C62.01246141 122.91127538 65.75792591 122.97502295 69.50341797 123.04003906 C70.67944077 123.05675156 71.85546356 123.07346405 73.06712341 123.09068298 C74.14816849 123.1106282 75.22921356 123.13057343 76.34301758 123.15112305 C77.77864296 123.17443947 77.77864296 123.17443947 79.24327087 123.19822693 C81.41357422 123.35644531 81.41357422 123.35644531 82.41357422 124.35644531 C82.50133027 126.50203358 82.52052641 128.65048952 82.51123047 130.79785156 C82.50639648 132.75561523 82.50639648 132.75561523 82.50146484 134.75292969 C82.49310823 136.14160221 82.48464327 137.53027408 82.47607422 138.91894531 C82.47106088 140.31152187 82.46649768 141.70410013 82.46240234 143.09667969 C82.45056856 146.51664402 82.43408302 149.93652375 82.41357422 153.35644531 C70.30515478 153.37956709 58.19674055 153.39735955 46.08830357 153.40825748 C40.4664946 153.41348668 34.84470069 153.42058497 29.22290039 153.43188477 C23.80239145 153.44271237 18.38189702 153.44872187 12.9613781 153.45132256 C10.88842477 153.45317704 8.81547228 153.45679808 6.7425251 153.46217537 C3.84973529 153.46938412 0.95700626 153.47043633 -1.93579102 153.4699707 C-2.80181442 153.47356598 -3.66783783 153.47716125 -4.56010437 153.48086548 C-10.47237362 153.47049747 -10.47237362 153.47049747 -11.58642578 152.35644531 C-11.68959608 150.43975458 -11.72164834 148.51922028 -11.72686768 146.59976196 C-11.73257782 145.34901382 -11.73828796 144.09826569 -11.74417114 142.80961609 C-11.74541663 141.41067515 -11.7465417 140.01173409 -11.74755859 138.61279297 C-11.7521844 137.14955011 -11.75720873 135.68630846 -11.76260376 134.22306824 C-11.77575286 130.23751641 -11.78217761 126.25198145 -11.78661442 122.2664113 C-11.78954115 119.77869341 -11.79364519 117.29098018 -11.79811859 114.80326462 C-11.81180023 107.02648458 -11.82146358 99.24971512 -11.82532048 91.47292387 C-11.82980282 82.48333712 -11.84735603 73.49390229 -11.87632108 64.50436175 C-11.89790965 57.56422156 -11.90802325 50.6241242 -11.9093616 43.68395078 C-11.91041168 39.53499546 -11.91636225 35.38618282 -11.93418121 31.23726273 C-11.95061322 27.33519567 -11.95284133 23.43337929 -11.94404221 19.53129005 C-11.9432692 18.09736652 -11.94764913 16.66342978 -11.95750046 15.22953987 C-11.9701407 13.27543241 -11.96258047 11.32122509 -11.95391846 9.36709595 C-11.95538502 8.27238291 -11.95685158 7.17766987 -11.95836258 6.04978371 C-11.58642578 3.35644531 -11.58642578 3.35644531 -10.29913139 1.50374794 C-7.2361167 -0.5480961 -3.56448791 -0.03961119 0 0 Z " fill="#E31A81" transform="translate(172.58642578125,861.6435546875)"/>
<path d="M0 0 C0.73024887 0.00718552 1.46049774 0.01437103 2.21287537 0.02177429 C3.3370713 0.02246162 3.3370713 0.02246162 4.48397827 0.02316284 C6.06851281 0.02618493 7.65304438 0.03406998 9.23753357 0.0464325 C11.6714777 0.06469621 14.10504173 0.06694215 16.53904724 0.06669617 C18.07615993 0.07161104 19.61327002 0.07743922 21.15037537 0.08427429 C21.88264847 0.08538712 22.61492157 0.08649994 23.36938477 0.08764648 C28.49916673 0.13619066 28.49916673 0.13619066 29.61521912 1.25224304 C29.71819655 3.4024789 29.7509549 5.55609438 29.75706482 7.70878601 C29.76053925 8.38376633 29.76401367 9.05874664 29.76759338 9.75418091 C29.77496546 11.22633408 29.78030307 12.69849847 29.78388405 14.17066574 C29.79104621 16.50940175 29.80671588 18.84792752 29.82522583 21.18659973 C29.87767004 27.83865771 29.92555904 34.49060834 29.94114685 41.14286804 C29.95130162 45.20968966 29.98082583 49.27599351 30.02246666 53.34260941 C30.03468909 54.88532189 30.03991411 56.42810789 30.03766823 57.97086716 C29.90611893 72.92309129 29.90611893 72.92309129 36.90428162 85.60380554 C37.67514099 86.02403992 38.44600037 86.44427429 39.24021912 86.87724304 C40.40424255 87.54626648 40.40424255 87.54626648 41.59178162 88.22880554 C45.63341275 90.27302824 48.8715744 90.47003054 53.36521912 90.50224304 C54.06904724 90.52286804 54.77287537 90.54349304 55.49803162 90.56474304 C61.66203135 90.61057204 65.63655614 88.96108834 70.36521912 84.87724304 C77.19800999 76.90565369 75.77196155 65.05953456 75.84501457 55.13887215 C75.8616212 52.96580215 75.88485474 50.79289167 75.90991211 48.61990356 C75.98021635 42.449011 76.04112428 36.27806256 76.09202576 30.10697937 C76.12375129 26.31638569 76.16498086 22.52599385 76.21222115 18.73556328 C76.22824553 17.294261 76.2405651 15.85291263 76.24912834 14.41154671 C76.26123531 12.40597911 76.28641234 10.40050313 76.3122406 8.39506531 C76.32254807 7.25416946 76.33285553 6.11327362 76.34347534 4.93780518 C76.61521912 2.25224304 76.61521912 2.25224304 78.61521912 0.25224304 C81.18448942 0.06494551 83.64395888 -0.00350338 86.21287537 0.02177429 C87.3370713 0.02246162 87.3370713 0.02246162 88.48397827 0.02316284 C90.06851281 0.02618493 91.65304438 0.03406998 93.23753357 0.0464325 C95.6714777 0.06469621 98.10504173 0.06694215 100.53904724 0.06669617 C102.07615993 0.07161104 103.61327002 0.07743922 105.15037537 0.08427429 C105.88264847 0.08538712 106.61492157 0.08649994 107.36938477 0.08764648 C112.49916673 0.13619066 112.49916673 0.13619066 113.61521912 1.25224304 C113.71110035 2.808447 113.73709945 4.36900758 113.73547363 5.92816162 C113.73753563 7.44477135 113.73753563 7.44477135 113.73963928 8.99201965 C113.73424637 10.66975967 113.73424637 10.66975967 113.72874451 12.38139343 C113.72889053 13.55196793 113.72903656 14.72254242 113.72918701 15.92858887 C113.72860807 19.14745247 113.72357903 22.36627308 113.71661305 25.58512807 C113.71037868 28.94571704 113.70977565 32.30630677 113.70858765 35.66690063 C113.70547458 42.03466646 113.69726152 48.4024152 113.68723816 54.77017349 C113.67607626 62.01794033 113.67056638 69.26570797 113.66554272 76.51348126 C113.65507888 91.42641139 113.63747991 106.33932551 113.61521912 121.25224304 C108.50658016 121.27689314 103.39797553 121.29507911 98.28929138 121.30717468 C96.55002744 121.31221508 94.81076775 121.31904734 93.07151794 121.3276825 C90.57695975 121.33976096 88.08245738 121.34547412 85.58787537 121.34989929 C84.8055806 121.35506058 84.02328583 121.36022186 83.21728516 121.36553955 C81.34954797 121.3657353 79.48192707 121.31423999 77.61521912 121.25224304 C75.961452 119.59847593 75.98050703 117.4427594 75.55271912 115.18974304 C75.28781677 113.8110907 75.28781677 113.8110907 75.01756287 112.40458679 C74.88478943 111.69431335 74.75201599 110.98403992 74.61521912 110.25224304 C74.15373474 110.62736023 73.69225037 111.00247742 73.21678162 111.38896179 C60.88858273 121.06148147 49.22082311 124.34737315 33.61521912 123.25224304 C20.05056614 121.16537335 9.45960651 114.66483054 0.79100037 104.01005554 C-7.61639979 91.4307213 -7.9815615 76.26648899 -7.84571838 61.69755554 C-7.84332663 59.97643676 -7.84243018 58.25531532 -7.84294128 56.53419495 C-7.83984529 52.96591848 -7.82351089 49.39805301 -7.79640198 45.82987976 C-7.76206257 41.2522516 -7.75478535 36.67506445 -7.75629234 32.09732246 C-7.7557501 28.56123128 -7.74481241 25.02523682 -7.73028946 21.4891777 C-7.72392635 19.79943953 -7.7199837 18.10969045 -7.71850204 16.41994095 C-7.71418424 14.07494864 -7.69672759 11.73043402 -7.67530823 9.38554382 C-7.6762146 8.68851349 -7.67712097 7.99148315 -7.67805481 7.27333069 C-7.59473247 1.06143897 -6.13699082 0.02787613 0 0 Z " fill="#E31A81" transform="translate(860.3847808837891,893.7477569580078)"/>
<path d="M0 0 C4.79524916 4.16600832 9.26672618 8.64258022 13.6796875 13.20703125 C16.11490949 15.73005228 16.11490949 15.73005228 18.8828125 17.69921875 C21.4190353 19.88724825 22.2200163 21.52118972 23.1875 24.6875 C22.76976318 25.1 22.35202637 25.5125 21.92163086 25.9375 C18.58644234 29.23633142 15.25925117 32.54309797 11.9453125 35.86328125 C11.00002686 36.80941284 11.00002686 36.80941284 10.03564453 37.7746582 C7.5794864 40.31679809 5.26632599 42.96610173 2.98828125 45.66796875 C0.00402529 49.01473737 -3.22399852 52.11838231 -6.41308594 55.26855469 C-9.13710888 57.97210908 -11.76615218 60.69517451 -14.25 63.625 C-17.89808173 67.91844262 -21.90457511 71.8347711 -25.93139648 75.76928711 C-28.78362761 78.57625163 -31.4957512 81.43835248 -34.1015625 84.4765625 C-38.37738704 89.42589462 -43.02961308 93.97583459 -47.6875 98.5625 C-49.39550524 100.2450885 -51.10135251 101.92987133 -52.8046875 103.6171875 C-53.55089355 104.35179199 -54.29709961 105.08639648 -55.06591797 105.84326172 C-56.87943877 107.57944424 -56.87943877 107.57944424 -57.8125 109.6875 C-62.00941314 109.17933519 -63.89909113 108.07903915 -66.80859375 105.046875 C-67.53240234 104.30566406 -68.25621094 103.56445312 -69.00195312 102.80078125 C-69.74380859 102.02089844 -70.48566406 101.24101562 -71.25 100.4375 C-72.72549678 98.90916884 -74.20331513 97.38307513 -75.68359375 95.859375 C-76.38726074 95.13492188 -77.09092773 94.41046875 -77.81591797 93.6640625 C-79.53857695 91.95867645 -81.28294189 90.38942931 -83.16015625 88.859375 C-92.51072456 81.20265043 -98.06206706 68.2646214 -100.4375 56.625 C-102.31503744 36.91085684 -97.43985418 21.08842566 -85.3125 5.625 C-62.63581325 -20.48988968 -26.16720811 -20.76230045 0 0 Z " fill="#E31A81" transform="translate(682.8125,378.3125)"/>
<path d="M0 0 C9.86088491 7.69072877 14.51215134 18.64669418 16.8984375 30.578125 C17.2284375 31.238125 17.5584375 31.898125 17.8984375 32.578125 C13.02241511 32.65792834 8.15097918 32.6784474 3.27441406 32.64526367 C1.61779022 32.64219106 -0.0389453 32.65500559 -1.6953125 32.68432617 C-15.54299549 32.91317911 -15.54299549 32.91317911 -19.43896484 29.57592773 C-21.0078125 27.140625 -21.0078125 27.140625 -22.08789062 24.7109375 C-23.04870895 22.18795949 -23.04870895 22.18795949 -26.4765625 20.515625 C-34.25450617 18.50408784 -39.78544339 19.73296757 -47.1015625 22.578125 C-48.03942332 27.62822095 -48.03942332 27.62822095 -47.1015625 32.578125 C-39.3927731 37.32348531 -30.4777928 39.17640057 -21.81201172 41.5 C-7.45783018 45.37296635 6.19752767 49.94296121 14.3359375 63.265625 C16.92810575 68.76102169 17.10639349 73.94083087 17.1484375 79.953125 C17.1690625 80.68273437 17.1896875 81.41234375 17.2109375 82.1640625 C17.2722343 90.7456148 13.69221452 97.34244973 7.8984375 103.578125 C1.04626621 109.68549506 -6.29855772 112.35948152 -15.1015625 114.578125 C-15.71555908 114.7531958 -16.32955566 114.9282666 -16.9621582 115.10864258 C-33.21192033 118.67457805 -52.35538348 115.70829108 -66.5390625 107.265625 C-76.15964199 100.93012144 -82.45562724 94.79431207 -86.4765625 83.828125 C-87.08728789 80.65235299 -87.25887714 77.80307521 -87.1015625 74.578125 C-84.11067166 73.08267958 -81.03789064 73.41533202 -77.7578125 73.41015625 C-77.03291626 73.40682785 -76.30802002 73.40349945 -75.56115723 73.40007019 C-74.02791987 73.39500575 -72.49467149 73.39266172 -70.96142578 73.39282227 C-68.61081907 73.39063362 -66.26068001 73.37246749 -63.91015625 73.35351562 C-62.42187661 73.35058208 -60.93359473 73.34859702 -59.4453125 73.34765625 C-58.74007446 73.34047073 -58.03483643 73.33328522 -57.30822754 73.32588196 C-52.33039098 73.34929652 -52.33039098 73.34929652 -50.1015625 75.578125 C-49.9159375 76.50625 -49.7303125 77.434375 -49.5390625 78.390625 C-47.41393925 83.10285483 -43.73105092 84.59518713 -39.1015625 86.578125 C-32.04778288 88.71441254 -26.50555059 87.84546586 -20.1015625 84.578125 C-18.24764104 82.72420354 -18.86612046 80.15359463 -18.7734375 77.68359375 C-19.22000839 74.81809723 -20.04703781 73.63264969 -22.1015625 71.578125 C-25.07347755 70.17097 -25.07347755 70.17097 -28.6015625 69.140625 C-29.25229736 68.93308594 -29.90303223 68.72554687 -30.57348633 68.51171875 C-35.92926001 66.84114507 -41.35352581 65.46096798 -46.7890625 64.078125 C-59.1089056 60.90711731 -72.37303191 57.23691778 -79.796875 46.015625 C-84.21861895 37.52587661 -84.81652696 29.99464764 -83.1015625 20.578125 C-80.66444018 13.96307871 -77.60308322 8.11687959 -72.1015625 3.578125 C-71.2353125 2.753125 -70.3690625 1.928125 -69.4765625 1.078125 C-50.83198713 -13.93193821 -19.28953378 -13.05091133 0 0 Z " fill="#E31A81" transform="translate(518.1015625,901.421875)"/>
<path d="M0 0 C7.27611515 4.26530888 12.07365572 10.29871793 14.90625 18.22265625 C16.75378004 26.0416673 16.79478974 34.95615382 12.5625 42 C8.64778607 47.49273815 4.59946127 51.04070526 -1.4375 54 C-2.4275 54.495 -2.4275 54.495 -3.4375 55 C-13.96051858 55.92050262 -23.02903469 56.30682214 -32.04296875 50.06640625 C-38.0296948 44.90004723 -42.01762522 39.32095858 -42.65234375 31.27734375 C-42.96397359 21.41737574 -41.11275607 13.74991292 -34.69921875 6.0859375 C-25.34758881 -2.53888182 -11.69618019 -5.19239514 0 0 Z " fill="#FCFDFF" transform="translate(431.4375,208)"/>
<path d="M0 0 C7.35672492 5.04873279 10.96861564 11.44110057 13 20 C13.92053237 31.16593814 13.50268816 40.10430735 6.25 48.875 C0.77396354 54.58999078 -4.75491673 56.45238092 -12.5234375 56.9921875 C-21.33472233 57.01998335 -28.03102235 52.75443832 -34.3125 46.8125 C-38.9724323 39.04594616 -41.27559808 31.04399038 -40 22 C-37.37133496 11.95474431 -33.16021532 5.05672716 -24.4375 -0.6875 C-16.87031988 -4.76213545 -7.44116428 -3.98576402 0 0 Z " fill="#FCFDFF" transform="translate(355,928)"/>
<path d="M0 0 C0.71196533 0.00217529 1.42393066 0.00435059 2.1574707 0.0065918 C4.30863193 0.00972866 6.45838627 -0.01361724 8.609375 -0.0390625 C9.99023265 -0.04133805 11.37109397 -0.0420378 12.75195312 -0.04101562 C14.62596802 -0.04548706 14.62596802 -0.04548706 16.5378418 -0.05004883 C21.38080281 0.44961395 25.34527373 1.77580788 29.10742188 5.00585938 C29.5740625 5.58464844 30.04070313 6.1634375 30.52148438 6.75976562 C31.00359375 7.33597656 31.48570312 7.9121875 31.98242188 8.50585938 C34.64116185 12.65456436 34.65592478 17.52426324 34.14648438 22.32226562 C32.4291985 27.02220592 30.28041772 29.53186062 26.14648438 32.32226562 C22.46549113 33.54926337 19.06481746 33.46546374 15.23242188 33.45507812 C14.46217682 33.45603485 13.69193176 33.45699158 12.89834595 33.45797729 C11.27272459 33.45865714 9.6471005 33.45681651 8.02148438 33.45263672 C5.52402716 33.44727109 3.0267486 33.45259577 0.52929688 33.45898438 C-1.04882852 33.45832385 -2.62695381 33.4570432 -4.20507812 33.45507812 C-4.95608795 33.45710236 -5.70709778 33.45912659 -6.48086548 33.46121216 C-11.73855441 33.43722684 -11.73855441 33.43722684 -12.85351562 32.32226562 C-13.07161318 28.06478136 -13.03930723 23.80180838 -13.03881836 19.53930664 C-13.04100305 17.39709563 -13.05915074 15.25540092 -13.078125 13.11328125 C-13.08105921 11.75716323 -13.08304382 10.40104275 -13.08398438 9.04492188 C-13.08809326 7.80492432 -13.09220215 6.56492676 -13.09643555 5.28735352 C-12.50775931 -1.89804632 -5.59239105 0.02266762 0 0 Z " fill="#FCFDFF" transform="translate(755.853515625,951.677734375)"/>
<path d="M0 0 C0.94230469 0.00064453 1.88460937 0.00128906 2.85546875 0.00195312 C3.83902344 0.01806641 4.82257812 0.03417969 5.8359375 0.05078125 C7.27646484 0.04594727 7.27646484 0.04594727 8.74609375 0.04101562 C16.32883948 0.09760328 25.11905122 0.31571833 31.2109375 5.36328125 C35.36523973 10.86492475 36.14453396 15.54690227 35.2109375 22.36328125 C33.67469094 26.58795929 32.0905493 29.05976174 28.2109375 31.36328125 C24.62856713 32.55740471 21.73352293 32.49285988 17.953125 32.49609375 C16.89763962 32.49752884 16.89763962 32.49752884 15.8208313 32.49899292 C14.33644521 32.4996725 12.85205613 32.4978337 11.36767578 32.49365234 C9.08749792 32.48828492 6.80751561 32.49361296 4.52734375 32.5 C3.08593706 32.49933949 1.6445305 32.4980589 0.203125 32.49609375 C-1.11316895 32.49496582 -2.42946289 32.49383789 -3.78564453 32.49267578 C-6.7890625 32.36328125 -6.7890625 32.36328125 -7.7890625 31.36328125 C-8.07136479 26.74464472 -8.02090261 22.11451415 -8.0390625 17.48828125 C-8.0596875 16.18246094 -8.0803125 14.87664063 -8.1015625 13.53125 C-8.10671875 12.28214844 -8.111875 11.03304687 -8.1171875 9.74609375 C-8.1265332 8.59512207 -8.13587891 7.44415039 -8.14550781 6.25830078 C-7.7890625 3.36328125 -7.7890625 3.36328125 -6.56787109 1.48706055 C-4.24971506 0.02254336 -2.73500546 -0.00960653 0 0 Z " fill="#FCFDFF" transform="translate(750.7890625,891.63671875)"/>
</svg>
